<svg xmlns="http://www.w3.org/2000/svg" viewBox="0 0 344.39 153.09"><defs><style>.cls-1{fill:#eeaf4b;}.cls-2{fill:#fcdf76;}.cls-3{fill:#f4c44e;}.cls-4{font-size:72px;fill:#0c0c0b;font-family:PermanentMarker-Regular, Permanent Marker;}.cls-5{letter-spacing:-0.02em;}.cls-6{letter-spacing:-0.09em;}</style></defs><g id="Layer_2" data-name="Layer 2"><g id="Layer_1-2" data-name="Layer 1"><path class="cls-1" d="M276.29,91.62a13.63,13.63,0,0,1,7.23-3.45,22,22,0,0,1,3.26-.35,22.49,22.49,0,0,1,2.85.1c.87.07,1.73.21,2.59.36l-1-7.35c-.79-6.18-5.67-11.47-13.22-14.33L188.34,23c-2.42,1.82-6.13,2.81-10.5,2.45-8.08-.68-15.19-5.65-15.89-11.1a6.22,6.22,0,0,1,.72-3.83L147.32,3c-11-4.13-22.76-3.83-30.36-.43L49.48,35.19C43.35,37.91,40,42.9,40.6,47.83v0L47.25,99.7a21.66,21.66,0,0,1,7.3-.58c9.37.79,17.62,6.54,18.43,12.86s-6.13,10.79-15.5,10a26.34,26.34,0,0,1-7.61-1.83l.91,7.12c.71,5.55,6.79,9.7,14.75,10l212.9,15.75c11.28.5,21.23-6.65,20.22-14.53l-3.51-27.46h0a26.54,26.54,0,0,1-12.8-3.1l-.23-.14a21.76,21.76,0,0,1-2.38-1.49c-.25-.18-.44-.38-.67-.57a16.8,16.8,0,0,1-1.56-1.33c-.37-.37-.65-.78-1-1.17s-.56-.62-.78-1a10.94,10.94,0,0,1-1.21-2.32,8.66,8.66,0,0,1-.55-2.36,7.2,7.2,0,0,1,.94-4.24A8.33,8.33,0,0,1,276.29,91.62Z"/><path class="cls-2" d="M286.79,87.82a26,26,0,0,1,5.43.46l-.94-7.36c-.73-5.71-7.13-9.9-15.34-10.06l-93.53-7.13a7.42,7.42,0,0,1,.27,1c.7,5.45-5.28,9.31-13.36,8.63s-15.2-5.64-15.9-11.09a6.26,6.26,0,0,1,0-.75L50.72,53.7c-5.67,0-8.77-2.61-9.79-5.86h-.32L47.25,99.7a21.72,21.72,0,0,1,7.31-.58C63.92,99.9,72.17,105.66,73,112s-6.13,10.8-15.5,10a26.42,26.42,0,0,1-7.61-1.84l.91,7.12c.71,5.56,6.8,9.7,14.75,10l212.9,15.76c11.28.49,21.24-6.65,20.23-14.53l-3.52-27.46c-9.07.14-18.24-4.74-20.63-11.07S277.59,88.12,286.79,87.82Z"/><path class="cls-3" d="M172.22,101.44c.95,7.42-7.21,12.68-18.22,11.76s-20.7-7.69-21.65-15.11,7.2-12.68,18.21-11.76S171.27,94,172.22,101.44Z"/><path class="cls-1" d="M150.56,86.33c-8.16-.69-14.74,2-17.21,6.53,3.68,5,11.11,8.9,19.28,9.59s14.74-2,17.21-6.53C166.16,90.92,158.73,87,150.56,86.33Z"/><path class="cls-3" d="M254.88,109.36c.66,5.2-5,8.88-12.75,8.23S227.63,112.21,227,107s5-8.88,12.75-8.24S254.21,104.17,254.88,109.36Z"/><path class="cls-1" d="M120.92,119.82c.67,5.2-5,8.88-12.75,8.23S93.68,122.67,93,117.48s5-8.88,12.75-8.23S120.26,114.63,120.92,119.82Z"/><path class="cls-1" d="M219.22,132.75c.43,3.38-3.28,5.77-8.29,5.35s-9.42-3.5-9.85-6.87,3.27-5.77,8.28-5.35S218.78,129.37,219.22,132.75Z"/><path class="cls-1" d="M210.82,94.05c.43,3.37-3.28,5.77-8.29,5.35s-9.42-3.5-9.86-6.87S196,86.76,201,87.18,210.38,90.67,210.82,94.05Z"/><path class="cls-3" d="M87.54,74.7c.47,3.71-3.61,6.34-9.11,5.88S68.08,76.73,67.61,73s3.6-6.34,9.1-5.88S87.06,71,87.54,74.7Z"/><path class="cls-3" d="M182.68,64.73c.7,5.44-5.28,9.31-13.36,8.63s-15.2-5.64-15.9-11.09,5.29-9.31,13.37-8.63S182,59.28,182.68,64.73Z"/><text class="cls-4" transform="translate(0 115.27)">K<tspan class="cls-5" x="55.9" y="0">ä</tspan><tspan x="96.33" y="0">se</tspan><tspan class="cls-6" x="167.27" y="0">D</tspan><tspan x="203.2" y="0">iebe</tspan></text></g></g></svg>